<?xml version="1.0" encoding="utf-8"?>
<!-- Generator: Adobe Illustrator 23.0.3, SVG Export Plug-In . SVG Version: 6.00 Build 0)  -->
<svg version="1.1" id="Camada_1" xmlns="http://www.w3.org/2000/svg" xmlns:xlink="http://www.w3.org/1999/xlink" x="0px" y="0px"
	 viewBox="0 0 500 500" style="enable-background:new 0 0 500 500;" xml:space="preserve">
<style type="text/css">
	.st0{fill-rule:evenodd;clip-rule:evenodd;fill:#FFD500;}
	.st1{fill:#FFFFFF;}
	.st2{fill-rule:evenodd;clip-rule:evenodd;fill:#004A93;}
</style>
<g>
	<g>
		<path class="st0" d="M210.45,166.34c2.65,2.06,5,4.71,6.76,7.79l0,0l1.03,1.62l0,0c6.91,11.91,3.82,26.91-6.62,35.29
			c12.35-4.85,26.91-0.15,33.82,11.91l0,0l0.88,1.62l0,0c1.76,3.09,2.94,6.32,3.38,9.7c0.44-3.38,1.47-6.62,3.23-9.85l0,0l1.03-1.62
			l0,0c6.91-11.91,21.32-16.76,33.82-11.76c-10.44-8.38-13.53-23.38-6.62-35.29l0,0l0.88-1.62l0,0c1.76-3.09,4.12-5.73,6.76-7.79
			c-3.09,1.18-6.62,1.91-10.15,1.91l0,0h-1.91l0,0c-13.82,0-25.14-10.15-27.05-23.38c-2.06,13.23-13.38,23.38-27.2,23.38l0,0h-1.91
			l0,0C217.06,168.25,213.68,167.51,210.45,166.34L210.45,166.34L210.45,166.34z"/>
		<path class="st1" d="M249.71,238.68c-2.22,0-4.09-1.64-4.37-3.84c-0.35-2.68-1.31-5.41-2.84-8.09l-0.92-1.69
			c-5.6-9.76-17.8-14.06-28.33-9.92c-2.03,0.8-4.34-0.01-5.43-1.89c-1.09-1.89-0.65-4.29,1.05-5.65
			c8.85-7.11,11.24-19.85,5.56-29.63l-0.94-1.46c-0.04-0.06-0.07-0.12-0.11-0.18c-1.42-2.49-3.37-4.73-5.64-6.5
			c-1.71-1.33-2.2-3.72-1.15-5.62c1.05-1.9,3.33-2.75,5.37-2.01c3.04,1.11,5.87,1.65,8.64,1.65h1.91c11.47,0,21.07-8.26,22.84-19.65
			c0.33-2.15,2.19-3.73,4.36-3.73c0.01,0,0.02,0,0.02,0c2.18,0.01,4.03,1.62,4.34,3.78c1.64,11.36,11.18,19.6,22.69,19.6h1.91
			c2.82,0,5.79-0.56,8.57-1.62c2.04-0.78,4.34,0.06,5.41,1.96c1.07,1.9,0.59,4.3-1.14,5.64c-2.27,1.77-4.22,4.01-5.64,6.5
			l-0.84,1.54c-5.74,9.89-3.34,22.63,5.51,29.74c1.7,1.37,2.15,3.78,1.05,5.66c-1.1,1.89-3.42,2.68-5.45,1.87
			c-10.64-4.26-22.57-0.1-28.36,9.88l-1.04,1.64c-1.42,2.63-2.29,5.31-2.67,8.19C253.79,237.03,251.92,238.68,249.71,238.68z
			 M222.44,204.77c10.82,0.32,21.19,6.15,26.83,15.98l0.36,0.66l0.62-0.98c5.71-9.84,15.89-15.57,26.65-15.79
			c-5.06-9.53-5.19-21.37,0.46-31.11l0.48-0.87h-1.07c-11.47,0-21.52-5.91-27.11-15.09c-5.66,9.18-15.74,15.09-27.15,15.09h-1
			l0.46,0.72C227.7,183.27,227.57,195.21,222.44,204.77z"/>
	</g>
	<g>
		<path class="st2" d="M61.5,379.54v56.76h12.06v-37.94l0,0c0-1.03-0.15-2.65-0.15-4.71c-0.15-2.21-0.29-4.71-0.44-7.35
			c0.29,1.91,0.59,3.68,1.03,5.44c0.29,1.62,0.74,3.09,1.03,4.56l0,0l11.32,39.99h12.2l11.47-40.58l0,0
			c0.44-1.47,0.88-2.94,1.18-4.56c0.44-1.47,0.74-3.09,1.03-4.85c-0.15,2.21-0.29,4.41-0.44,6.18c0,2.06-0.15,3.97-0.15,5.73l0,0
			v38.08h12.79v-56.76h-20.44l-9.41,33.82l0,0c-0.29,1.18-0.59,2.79-0.88,4.56c-0.29,1.76-0.44,3.68-0.59,5.73
			c-0.15-1.91-0.29-3.68-0.59-5.44c-0.15-1.76-0.44-3.23-0.88-4.56l0,0l-9.26-34.11H61.5L61.5,379.54z"/>
		<path class="st2" d="M171.19,416c0-7.35-1.76-12.94-5-16.91c-3.38-3.97-8.09-6.03-14.12-6.03v8.82c2.06,0,3.82,0.88,5.15,2.5
			c1.32,1.62,2.21,3.82,2.5,6.62l0,0l0,0h-7.65v8.53h19.11V416L171.19,416L171.19,416z M152.07,437.47c0.59,0,1.32,0,2.06,0
			c2.5,0,4.85-0.15,7.06-0.59c2.35-0.44,4.56-1.18,6.62-1.91l0,0v-10.29l0,0c-2.21,1.03-4.41,2.06-6.47,2.5
			c-2.06,0.59-4.12,1.03-6.03,1.03c-1.18,0-2.21-0.15-3.23-0.44V437.47z M152.07,393.07h-0.15c-6.18,0-10.88,2.06-14.56,5.88
			c-3.53,3.82-5.29,9.12-5.29,15.59c0,7.2,1.91,12.79,5.73,16.91c3.53,3.53,8.23,5.59,14.26,6.03v-9.7
			c-1.76-0.29-3.09-0.88-4.26-1.91c-1.91-1.47-2.94-3.68-3.23-6.32l0,0h7.5V411h-7.65l0,0c0.29-2.79,1.03-5,2.35-6.62
			c1.47-1.62,3.23-2.5,5.29-2.5l0,0V393.07z"/>
		<path class="st2" d="M194.71,379.98l-12.2,4.56v9.7h-8.09v10.44h7.35v14.85l0,0c0,6.32,1.18,10.88,3.38,13.82
			c2.35,2.79,6.03,4.12,11.17,4.12c1.18,0,2.5-0.15,3.82-0.29c1.32-0.15,2.65-0.44,3.97-0.74l0,0l-0.15-9.41l0,0
			c-0.88,0.15-1.62,0.44-2.06,0.44c-0.44,0.15-0.88,0.15-1.18,0.15c-2.21,0-3.82-0.59-4.71-1.91c-0.88-1.32-1.32-3.53-1.32-6.62l0,0
			v-14.41h9.26v-10.44h-9.26V379.98L194.71,379.98z"/>
		<path class="st2" d="M230.59,403.21c2.5,0,4.56,1.18,6.03,3.23c1.47,2.21,2.21,5.15,2.21,8.82c0,3.53-0.74,6.47-2.21,8.68
			s-3.53,3.23-6.03,3.23v10.15c6.91,0,12.2-1.91,16.03-5.88c3.68-3.82,5.59-9.26,5.59-16.17c0-6.91-1.91-12.35-5.59-16.32
			c-3.82-3.82-9.12-5.88-16.03-5.88V403.21z M230.59,403.21L230.59,403.21L230.59,403.21L230.59,403.21z M230.59,393.07
			L230.59,393.07L230.59,393.07z M230.59,427.18c-2.35,0-4.41-1.03-5.88-3.23c-1.47-2.21-2.35-5.15-2.35-8.68
			c0-3.68,0.88-6.62,2.35-8.82c1.47-2.06,3.53-3.23,5.88-3.23v-10.15c-6.76,0-12.2,2.06-16.03,5.88c-3.82,3.97-5.73,9.41-5.73,16.32
			c0,6.91,1.91,12.35,5.73,16.17c3.82,3.97,9.26,5.88,16.03,5.88V427.18L230.59,427.18z M230.59,403.21L230.59,403.21L230.59,403.21
			L230.59,403.21z M230.59,393.07L230.59,393.07L230.59,393.07z"/>
		<path class="st2" d="M279.55,403.65c2.5,0.15,4.26,1.18,5.73,3.09c1.47,2.06,2.21,4.85,2.21,8.23c0,3.53-0.74,6.32-2.06,8.23
			c-1.47,2.06-3.38,3.09-5.88,3.09v10c1.32-0.29,2.5-0.88,3.68-1.62c2.35-1.62,4.26-3.82,5.73-6.76l0,0v8.38h11.62v-61.31h-12.94
			l0,0v25.14l0,0c-1.47-2.35-3.38-4.12-5.44-5.29c-0.74-0.44-1.62-0.88-2.65-1.03V403.65z M279.26,403.65c0.15,0,0.29,0,0.29,0
			v-9.85c-1.32-0.44-2.79-0.74-4.41-0.74c-5.15,0-9.12,2.06-12.2,5.88c-2.94,3.82-4.56,9.12-4.56,15.73
			c0,6.76,1.62,12.06,4.71,16.17c3.09,4.12,7.2,6.18,12.2,6.18c1.47,0,2.94-0.29,4.26-0.74v-10l0,0c-2.5,0-4.26-1.03-5.73-3.09
			c-1.47-1.91-2.21-4.71-2.21-8.09c0-3.38,0.74-6.18,2.21-8.23C275.29,404.68,277.05,403.65,279.26,403.65L279.26,403.65
			L279.26,403.65z"/>
		<path class="st2" d="M310.43,394.24v42.05h12.94v-42.05H310.43L310.43,394.24L310.43,394.24z M310.43,374.98v11.62h12.94v-11.62
			H310.43L310.43,374.98z"/>
		<path class="st2" d="M361.01,395.27c-2.06-0.74-3.97-1.18-6.03-1.62c-1.91-0.44-3.82-0.59-5.59-0.59c-5.73,0-10,1.32-13.23,3.68
			c-3.09,2.5-4.56,5.88-4.56,10.29c0,2.79,0.74,5.29,2.35,6.91c1.47,1.76,4.26,3.53,8.23,4.85c0.44,0.29,1.32,0.44,2.21,0.74
			c3.82,1.32,5.88,2.79,5.88,4.56c0,1.03-0.59,2.06-1.47,2.65c-1.03,0.44-2.35,0.74-4.26,0.74c-2.06,0-3.97-0.29-6.03-0.74
			c-1.91-0.59-3.82-1.32-5.59-2.5l0,0l-0.88,10.88l0,0c2.21,0.74,4.41,1.32,6.62,1.76c2.35,0.44,4.56,0.59,6.91,0.59
			c5.44,0,9.7-1.18,12.94-3.82c3.09-2.5,4.71-6.03,4.71-10.44c0-3.38-0.88-6.03-2.35-7.94c-1.76-1.91-4.56-3.53-8.53-4.85
			c-0.74-0.29-1.47-0.59-2.65-0.88c-3.53-1.03-5.29-2.35-5.29-3.82c0-1.18,0.44-2.06,1.32-2.65c0.88-0.59,2.06-1.03,3.68-1.03
			c1.62,0,3.23,0.44,5,1.03c1.76,0.59,3.53,1.32,5.29,2.35l0,0L361.01,395.27L361.01,395.27z"/>
		<path class="st2" d="M386.6,379.98l-12.2,4.56v9.7h-7.94v10.44h7.2v14.85l0,0c0,6.32,1.18,10.88,3.53,13.82
			c2.21,2.79,5.88,4.12,11.03,4.12c1.32,0,2.65-0.15,3.97-0.29c1.32-0.15,2.65-0.44,3.97-0.74l0,0l-0.15-9.41l0,0
			c-0.88,0.15-1.62,0.44-2.06,0.44c-0.44,0.15-0.88,0.15-1.18,0.15c-2.21,0-3.82-0.59-4.71-1.91c-1.03-1.32-1.47-3.53-1.47-6.62l0,0
			v-14.41h9.41v-10.44h-9.41V379.98L386.6,379.98z"/>
		<path class="st2" d="M423.94,417.18h2.21v1.18l0,0c0,2.79-0.74,5.15-2.21,6.91c-1.18,1.32-2.5,2.21-4.26,2.5v8.09
			c0.59-0.29,1.18-0.44,1.62-0.74c2.21-1.18,3.97-2.94,5.59-5.29l0,0l0.29,6.47h11.32v-22.06l0,0c0-7.35-1.47-12.65-4.41-16.03
			c-2.79-3.53-7.5-5.15-13.67-5.15c-0.15,0-0.44,0-0.74,0v9.12c1.76,0.29,3.09,0.88,4.12,1.76c1.62,1.18,2.35,2.94,2.35,5.15l0,0
			v0.59h-5l0,0c-0.44,0-1.03,0-1.47,0v7.79C421,417.33,422.33,417.18,423.94,417.18L423.94,417.18L423.94,417.18z M419.68,427.77
			c-0.44,0.15-0.88,0.15-1.47,0.15c-1.47,0-2.65-0.44-3.68-1.47c-0.88-0.88-1.32-2.06-1.32-3.53c0-1.91,0.88-3.38,2.5-4.41
			c1.03-0.44,2.35-0.88,3.97-1.03v-7.79c-6.18,0.15-10.73,1.32-13.82,3.38c-3.23,2.35-5,5.73-5,10.44c0,3.97,1.18,7.2,3.38,9.56
			c2.35,2.5,5.44,3.82,9.26,3.82c2.35,0,4.41-0.44,6.18-1.03V427.77L419.68,427.77z M419.68,393.07v9.12
			c-0.74-0.15-1.76-0.15-2.79-0.15c-1.47,0-3.09,0.29-5,0.88c-1.91,0.59-3.97,1.47-6.18,2.5l0,0l-0.15-9.41l0,0
			c2.06-1.03,4.41-1.76,6.76-2.21C414.53,393.36,417.03,393.07,419.68,393.07z"/>
	</g>
	<g>
		<path class="st2" d="M138.55,334.25v16.76l0,0c0,3.97,0.88,7.06,2.65,9.12c1.62,2.06,4.12,3.09,7.5,3.09s6.03-1.03,7.65-3.09
			c1.76-2.21,2.65-5.29,2.65-9.41l0,0v-16.47h-4.85v16.47l0,0c0,2.65-0.44,4.71-1.32,6.03c-0.88,1.47-2.21,2.06-4.12,2.06
			c-1.76,0-2.94-0.59-3.82-1.91c-0.88-1.18-1.32-3.23-1.32-6.03l0,0v-16.62H138.55L138.55,334.25z"/>
		<path class="st2" d="M182.36,350.28c0-2.94-0.59-5.15-1.76-6.76c-1.03-1.47-2.79-2.21-5-2.21c-1.47,0-2.65,0.44-3.82,1.18
			c-1.18,0.59-2.06,1.76-2.79,3.09l0,0v-3.68h-4.41v20.73h4.85v-10.29l0,0c0-2.06,0.44-3.68,1.18-4.85
			c0.88-1.18,1.91-1.76,3.23-1.76c1.18,0,2.21,0.59,2.79,1.47c0.59,0.88,0.88,2.35,0.88,4.26l0,0v11.17h4.85V350.28L182.36,350.28z"
			/>
		<path class="st2" d="M187.51,341.9v20.73h4.71V341.9H187.51L187.51,341.9L187.51,341.9z M187.51,332.63v5.15h4.71v-5.15H187.51
			L187.51,332.63z"/>
		<polygon class="st2" points="195.45,341.9 202.07,362.63 207.65,362.63 214.42,341.9 209.57,341.9 205.01,357.78 200.6,341.9 
			195.45,341.9 		"/>
		<path class="st2" d="M233.83,352.04c0-3.38-0.88-6.03-2.35-7.94c-1.47-1.76-3.53-2.79-6.32-2.79H225v3.53h0.15
			c1.18,0,2.21,0.44,2.94,1.47c0.74,1.03,1.18,2.35,1.32,4.12l0,0l0,0H225v3.23h8.82V352.04L233.83,352.04L233.83,352.04z
			 M225,363.07c0.29,0.15,0.59,0.15,0.88,0.15c1.18,0,2.35-0.15,3.38-0.29c1.03-0.29,2.06-0.59,2.94-1.03l0,0v-4.12l0,0
			c-0.88,0.59-1.76,0.88-2.65,1.18s-1.91,0.44-2.79,0.44c-0.59,0-1.18-0.15-1.76-0.29V363.07z M225,341.31
			c-2.65,0-4.85,1.03-6.47,2.94c-1.76,1.91-2.65,4.56-2.65,7.65c0,3.53,0.88,6.32,2.65,8.23c1.62,1.91,3.82,2.79,6.47,2.94v-3.97
			c-1.03-0.15-1.91-0.59-2.5-1.32c-1.18-1.03-1.76-2.35-1.91-4.12l0,0H225v-3.23h-4.41l0,0c0.15-1.76,0.74-3.09,1.47-4.12
			c0.88-1.03,1.76-1.47,2.94-1.47V341.31z"/>
		<path class="st2" d="M248.97,341.6c-0.29-0.15-0.59-0.15-0.88-0.15c-0.29-0.15-0.44-0.15-0.74-0.15c-1.18,0-2.35,0.44-3.23,1.18
			c-0.88,0.88-1.76,1.91-2.35,3.53l0,0v-4.12h-4.26v20.73h4.85v-9.7l0,0c0-2.21,0.29-3.97,1.18-5.15c0.88-1.18,2.06-1.76,3.68-1.76
			c0.29,0,0.59,0.15,0.88,0.15s0.44,0.15,0.74,0.15l0,0L248.97,341.6L248.97,341.6z"/>
		<path class="st2" d="M263.82,342.49c-1.32-0.44-2.35-0.74-3.23-0.88c-0.74-0.15-1.32-0.29-1.91-0.29c-2.21,0-4.12,0.59-5.44,1.76
			c-1.47,1.18-2.06,2.65-2.06,4.41c0,1.32,0.29,2.35,0.88,3.23c0.74,0.74,1.91,1.76,3.82,2.79l0,0c2.5,1.47,3.68,2.65,3.68,3.68
			c0,0.59-0.15,1.03-0.74,1.47c-0.44,0.29-1.18,0.44-2.21,0.44c-0.88,0-1.76-0.15-2.79-0.29c-0.88-0.29-1.76-0.59-2.65-1.18l0,0
			l-0.29,4.12l0,0c0.88,0.29,1.76,0.59,2.79,0.74c1.03,0.29,1.91,0.29,2.94,0.29c2.5,0,4.41-0.59,5.88-1.62
			c1.47-1.18,2.06-2.79,2.06-4.71c0-1.47-0.29-2.65-1.03-3.53c-0.74-1.03-2.21-1.91-4.26-2.94c0,0-0.15-0.15-0.44-0.29
			c-1.91-0.88-2.94-1.91-2.94-2.79c0-0.59,0.29-1.03,0.74-1.32c0.44-0.44,1.03-0.59,1.91-0.59c0.88,0,1.62,0.15,2.5,0.44
			c0.74,0.15,1.62,0.59,2.35,1.03l0,0L263.82,342.49L263.82,342.49z"/>
		<path class="st2" d="M268.67,341.9v20.73h4.71V341.9H268.67L268.67,341.9L268.67,341.9z M268.67,332.63v5.15h4.71v-5.15H268.67
			L268.67,332.63z"/>
		<path class="st2" d="M287.35,345.28c1.47,0.15,2.5,0.74,3.38,1.91c0.88,1.18,1.18,2.79,1.18,5c0,2.06-0.29,3.68-1.18,4.85
			c-0.88,1.18-1.91,1.76-3.38,1.76v3.97c0.88-0.15,1.62-0.44,2.35-1.03c1.03-0.74,2.06-1.76,2.79-3.23l0,0v4.12h4.26v-30.58h-4.71
			l0,0v12.94l0,0c-0.74-1.18-1.62-2.21-2.79-2.79c-0.59-0.29-1.18-0.59-1.91-0.74V345.28z M287.2,345.28c0.15,0,0.15,0,0.15,0v-3.82
			c-0.44,0-1.03-0.15-1.76-0.15c-2.21,0-4.12,1.03-5.59,2.94c-1.47,1.91-2.21,4.56-2.21,7.65c0,3.23,0.74,5.88,2.21,7.94
			c1.47,2.06,3.53,3.09,5.73,3.09c0.59,0,1.18,0,1.62-0.15v-3.97l0,0c-1.47,0-2.5-0.59-3.23-1.76c-0.88-1.18-1.32-2.79-1.32-4.85
			s0.44-3.68,1.32-5C284.85,346.01,285.88,345.28,287.2,345.28L287.2,345.28L287.2,345.28z"/>
		<path class="st2" d="M311.61,352.78h1.62v1.03l0,0c0,1.62-0.44,2.94-1.32,3.97c-0.59,0.88-1.47,1.32-2.5,1.62v3.38
			c0.44-0.15,1.03-0.29,1.32-0.59c1.18-0.74,2.06-1.62,2.79-2.94l0,0l0.15,3.38h4.12v-11.91l0,0c0-3.23-0.59-5.59-1.91-7.2
			c-1.18-1.47-3.23-2.21-6.03-2.21h-0.44v3.68c1.18,0.15,2.06,0.44,2.65,1.03c0.74,0.88,1.18,1.91,1.18,3.38l0,0v0.29h-2.5l0,0
			c-0.44,0-0.88,0-1.32,0v3.23C310.14,352.78,310.73,352.78,311.61,352.78L311.61,352.78L311.61,352.78z M309.4,359.39
			c-0.15,0-0.44,0-0.74,0c-0.88,0-1.62-0.29-2.21-0.88c-0.44-0.59-0.74-1.32-0.74-2.21c0-1.18,0.44-2.06,1.47-2.65
			c0.59-0.44,1.32-0.74,2.21-0.74v-3.23c-2.5,0.15-4.56,0.74-6.03,1.76c-1.62,1.03-2.5,2.79-2.5,5.15c0,1.91,0.59,3.53,1.76,4.71
			c1.18,1.18,2.65,1.91,4.56,1.91c0.74,0,1.62-0.15,2.21-0.44V359.39L309.4,359.39z M309.4,341.31v3.68c-0.15,0-0.44,0-0.74,0
			c-0.88,0-1.76,0-2.65,0.29c-0.88,0.29-1.76,0.74-2.79,1.32l0,0v-3.82l0,0c1.18-0.44,2.21-0.88,3.23-1.03
			C307.49,341.46,308.52,341.31,309.4,341.31z"/>
		<path class="st2" d="M331.46,345.28c1.47,0.15,2.5,0.74,3.38,1.91c0.88,1.18,1.32,2.79,1.32,5c0,2.06-0.44,3.68-1.32,4.85
			c-0.88,1.18-1.91,1.76-3.38,1.76v3.97c0.88-0.15,1.62-0.44,2.35-1.03c1.03-0.74,2.06-1.76,2.79-3.23l0,0v4.12h4.26v-30.58h-4.71
			l0,0v12.94l0,0c-0.74-1.18-1.62-2.21-2.79-2.79c-0.44-0.29-1.18-0.59-1.91-0.74V345.28z M331.31,345.28c0.15,0,0.15,0,0.15,0
			v-3.82c-0.44,0-1.03-0.15-1.76-0.15c-2.21,0-4.12,1.03-5.59,2.94s-2.06,4.56-2.06,7.65c0,3.23,0.74,5.88,2.21,7.94
			c1.47,2.06,3.38,3.09,5.59,3.09c0.59,0,1.18,0,1.62-0.15v-3.97l0,0c-1.47,0-2.5-0.59-3.23-1.76c-0.88-1.18-1.32-2.79-1.32-4.85
			s0.44-3.68,1.32-5C328.96,346.01,329.99,345.28,331.31,345.28L331.31,345.28L331.31,345.28z"/>
		<path class="st2" d="M363.07,352.04c0-3.38-0.88-6.03-2.35-7.94c-1.47-1.76-3.53-2.79-6.32-2.79h-0.15v3.53h0.15
			c1.18,0,2.21,0.44,2.94,1.47c0.74,1.03,1.18,2.35,1.32,4.12l0,0l0,0h-4.41v3.23h8.82V352.04L363.07,352.04L363.07,352.04z
			 M354.25,363.07c0.29,0.15,0.59,0.15,0.88,0.15c1.18,0,2.35-0.15,3.38-0.29c1.03-0.29,2.06-0.59,2.94-1.03l0,0v-4.12l0,0
			c-0.88,0.59-1.76,0.88-2.65,1.18c-0.88,0.29-1.91,0.44-2.79,0.44c-0.59,0-1.18-0.15-1.76-0.29V363.07z M354.25,341.31
			c-2.65,0-4.85,1.03-6.47,2.94c-1.76,1.91-2.65,4.56-2.65,7.65c0,3.53,0.88,6.32,2.65,8.23c1.62,1.91,3.82,2.79,6.47,2.94v-3.97
			c-1.03-0.15-1.91-0.59-2.5-1.32c-1.18-1.03-1.76-2.35-1.91-4.12l0,0h4.41v-3.23h-4.41l0,0c0.15-1.76,0.74-3.09,1.47-4.12
			c0.74-1.03,1.76-1.47,2.94-1.47V341.31z"/>
	</g>
	<path class="st2" d="M249.71,234.12v0.15c0.29-3.38,1.47-6.62,3.23-9.85l0,0l0.88-1.62l0,0c6.91-11.91,21.47-16.76,33.82-11.76
		c-10.44-8.38-13.53-23.38-6.62-35.29l0,0l1.03-1.62l0,0c1.76-3.09,4.12-5.73,6.76-7.79c-3.23,1.18-6.62,1.91-10.29,1.91l0,0h-1.76
		l0,0c-13.82,0-25.14-10.15-27.05-23.38V20.04l0,0c4.56,0,9.26,0.15,13.82,0.59l0,0v83.22l0,0c0,5,3.09,9.12,6.76,9.12
		s6.76-4.12,6.76-9.12l0,0v-81.6l0,0c10,1.62,19.7,4.26,29.11,7.65l0,0v110.87l0,0c0,8.68-4.12,16.47-10.44,21.61
		c7.5-3.09,16.32-2.65,23.82,1.62l0,0l93.66,54.11l0,0c-1.91,10-4.71,19.56-8.23,28.82l0,0l-67.93-39.26l0,0
		c-4.41-2.5-9.41-1.91-11.32,1.32c-1.76,3.23,0.15,7.79,4.56,10.29l0,0l69.25,39.99l0,0c-4.12,8.53-8.97,16.62-14.41,24.26l0,0
		l-68.96-39.85l0,0c-4.26-2.5-9.26-1.91-11.17,1.32c-1.91,3.09,0.15,7.79,4.56,10.29l0,0l67.2,38.82l0,0
		c-6.47,7.79-13.67,14.85-21.47,21.32l0,0l-92.34-53.37l0,0c-7.5-4.41-12.2-11.76-13.23-19.85v0.15V234.12z M210.45,166.34
		c2.65,2.06,5,4.71,6.76,7.79l0,0l0.88,1.62l0,0c6.91,11.91,3.82,26.91-6.62,35.29c12.5-4.85,26.91-0.15,33.82,11.91l0,0l1.03,1.62
		l0,0c1.76,3.09,2.79,6.32,3.38,9.56v8.23c-1.18,7.94-5.88,15.44-13.53,19.7l0,0l-92.19,53.23l0,0c-7.79-6.32-15-13.53-21.47-21.17
		l0,0l67.2-38.82l0,0c4.26-2.5,6.32-7.06,4.56-10.29c-1.91-3.23-6.91-3.82-11.32-1.32l0,0l-68.81,39.7l0,0
		c-5.44-7.5-10.29-15.59-14.41-24.11l0,0l69.25-39.99l0,0c4.26-2.5,6.32-7.06,4.41-10.29c-1.76-3.23-6.76-3.82-11.17-1.32l0,0
		l-67.78,39.26l0,0c-3.68-9.26-6.47-18.97-8.38-28.82l0,0l93.51-54.11l0,0c7.65-4.26,16.47-4.71,23.97-1.62
		c-6.32-5.15-10.44-12.94-10.44-21.61l0,0V29.89l0,0c9.26-3.38,18.97-5.88,29.11-7.65l0,0v81.6l0,0c0,5,2.94,9.12,6.62,9.12
		c3.82,0,6.76-4.12,6.76-9.12l0,0V20.62l0,0c4.71-0.44,9.26-0.59,14.12-0.59v124.83l0,0c-2.06,13.23-13.53,23.38-27.2,23.38l0,0
		h-1.91l0,0C217.06,168.25,213.54,167.51,210.45,166.34L210.45,166.34L210.45,166.34z"/>
	<g>
		<path class="st2" d="M147.37,462.03c1.32,0,2.5,0.59,3.38,1.76c0.74,1.18,1.18,2.94,1.18,5s-0.44,3.68-1.18,4.85
			c-0.88,1.18-2.06,1.91-3.38,1.91v3.82c0.88-0.15,1.62-0.44,2.21-0.88c1.18-0.74,2.06-1.91,2.94-3.38l0,0v4.12h4.26v-30.58h-4.85
			l0,0v12.94l0,0c-0.74-1.18-1.62-2.06-2.65-2.65c-0.59-0.44-1.18-0.59-1.91-0.74V462.03z M147.22,462.03h0.15v-3.82
			c-0.59-0.15-1.18-0.29-1.76-0.29c-2.35,0-4.26,1.03-5.59,2.94c-1.47,1.91-2.21,4.56-2.21,7.65c0,3.23,0.74,5.88,2.21,7.94
			c1.47,2.21,3.38,3.09,5.73,3.09c0.59,0,1.03,0,1.62-0.15v-3.82h-0.15c-1.32,0-2.35-0.74-3.23-1.91c-0.74-1.18-1.18-2.79-1.18-4.85
			s0.44-3.68,1.18-4.85C144.87,462.61,145.9,462.03,147.22,462.03L147.22,462.03L147.22,462.03z"/>
		<path class="st2" d="M178.83,468.64c0-3.38-0.74-6.03-2.21-7.79c-1.47-1.91-3.68-2.94-6.32-2.94h-0.15v3.53h0.15
			c1.18,0,2.21,0.44,2.94,1.47c0.74,1.03,1.18,2.35,1.32,4.12l0,0l0,0h-4.41v3.38h8.68V468.64L178.83,468.64L178.83,468.64z
			 M170.16,479.82c0.29,0,0.59,0,0.88,0c1.18,0,2.21-0.15,3.38-0.29c1.03-0.15,1.91-0.59,2.94-0.88l0,0v-4.12l0,0
			c-0.88,0.44-1.76,0.88-2.65,1.03c-1.03,0.29-1.91,0.44-2.94,0.44c-0.59,0-1.18,0-1.62-0.15V479.82z M170.16,457.91
			c-2.79,0.15-4.85,1.03-6.62,2.94c-1.62,2.06-2.5,4.56-2.5,7.65c0,3.53,0.88,6.32,2.65,8.38c1.62,1.76,3.68,2.79,6.47,2.94v-3.97
			c-1.03-0.29-1.91-0.74-2.65-1.32c-1.03-1.03-1.62-2.35-1.76-4.12l0,0h4.41v-3.38h-4.41l0,0c0.15-1.76,0.59-3.09,1.47-4.12
			c0.74-0.88,1.76-1.47,2.94-1.47V457.91z"/>
		<path class="st2" d="M208.54,451.59c-0.29-0.15-0.74-0.15-1.32-0.29c-2.06-0.74-3.68-1.03-4.85-1.03c-2.79,0-5,0.74-6.76,2.21
			c-1.62,1.47-2.5,3.38-2.5,5.88c0,0.88,0.15,1.91,0.44,2.79s0.74,1.62,1.32,2.35c0.88,0.88,2.21,2.06,4.26,3.23
			c0.29,0.15,0.44,0.29,0.59,0.29c0,0.15,0.15,0.15,0.44,0.29c2.65,1.62,3.97,3.09,3.97,4.56c0,1.03-0.29,1.91-1.18,2.65
			c-0.88,0.74-1.91,1.03-3.38,1.03c-0.74,0-1.62-0.15-2.65-0.44c-0.88-0.44-2.06-1.03-3.53-1.76l0,0l-0.44,4.85l0,0
			c0.15,0.15,0.29,0.15,0.59,0.29c2.94,1.03,4.85,1.47,6.03,1.47c2.94,0,5.29-0.88,7.2-2.5c1.76-1.76,2.65-3.82,2.65-6.47
			c0-1.76-0.44-3.38-1.32-4.56c-1.03-1.32-2.79-2.79-5.29-4.12c-0.15-0.15-0.29-0.29-0.59-0.44c-2.79-1.47-4.12-2.94-4.12-4.12
			c0-1.03,0.29-1.76,1.18-2.35c0.74-0.44,1.76-0.74,3.09-0.74c0.88,0,1.91,0,2.79,0.29c1.03,0.29,1.91,0.59,2.94,1.03l0,0
			L208.54,451.59L208.54,451.59z"/>
		<path class="st2" d="M225.45,449.67c-0.15,0.59-0.29,1.03-0.59,1.32c-0.29,0.29-0.59,0.29-1.03,0.29c-0.15,0-0.29,0-0.44,0
			s-0.29,0-0.59-0.15l0,0l-1.62-0.59v3.09l1.18,0.29l0,0c0.15,0.15,0.44,0.15,0.59,0.29c0.15,0,0.44,0,0.74,0
			c0.88,0,1.62-0.44,2.21-1.03c0.59-0.74,1.03-1.91,1.47-3.53l0,0H225.45L225.45,449.67L225.45,449.67z M221.18,479.38v-3.38
			c1.03-0.15,1.91-0.74,2.5-1.47c0.88-1.03,1.32-2.35,1.32-4.12l0,0v-1.03h-1.62l0,0l0,0c-0.88,0-1.62,0-2.21,0.15v-3.09
			c0.44-0.15,0.88-0.15,1.32-0.15l0,0h2.5V466l0,0c0-1.32-0.44-2.5-1.18-3.23c-0.59-0.74-1.47-1.03-2.65-1.18v-3.68
			c0.15,0,0.29,0,0.29,0c2.94,0,5,0.74,6.18,2.35c1.32,1.47,1.91,3.97,1.91,7.2l0,0v11.76h-4.12l-0.15-3.38l0,0
			c-0.74,1.32-1.62,2.35-2.79,2.94C222.06,479.08,221.62,479.23,221.18,479.38z M221.18,450.56h-0.15l0,0
			c-0.15,0-0.29-0.15-0.59-0.15c-0.15,0-0.44,0-0.74,0c-0.88,0-1.62,0.29-2.21,1.03c-0.74,0.74-1.18,1.76-1.47,3.23l0,0h1.91l0,0
			c0.15-0.44,0.29-0.88,0.59-1.03c0.29-0.29,0.59-0.44,1.03-0.44c0.15,0,0.29,0,0.59,0c0.15,0.15,0.29,0.15,0.44,0.29l0,0l0.59,0.15
			V450.56L221.18,450.56z M221.18,457.91v3.68c-0.29,0-0.44,0-0.74,0c-0.88,0-1.76,0.15-2.65,0.44c-0.88,0.29-1.76,0.59-2.79,1.18
			l0,0v-3.82l0,0c1.03-0.44,2.21-0.74,3.23-1.03S220.3,458.06,221.18,457.91L221.18,457.91z M221.18,466.44v3.09
			c-0.88,0.15-1.62,0.29-2.35,0.74c-0.88,0.59-1.47,1.47-1.47,2.65c0,1.03,0.29,1.76,0.88,2.21c0.59,0.59,1.32,0.88,2.21,0.88
			c0.29,0,0.59,0,0.74,0v3.38c-0.74,0.29-1.47,0.44-2.21,0.44c-1.91,0-3.38-0.59-4.56-1.76c-1.18-1.32-1.76-2.94-1.76-4.85
			c0-2.21,0.88-3.97,2.5-5.15C216.62,467.02,218.53,466.44,221.18,466.44z"/>
		<path class="st2" d="M243.53,461.88c1.47,0,2.65,0.59,3.53,1.91c0.88,1.18,1.32,2.94,1.32,5c0,2.21-0.44,3.82-1.32,5.15
			c-0.88,1.18-2.06,1.91-3.53,1.91v3.97c3.09,0,5.44-1.03,7.06-2.94c1.76-1.91,2.65-4.56,2.65-7.94c0-3.53-0.88-6.18-2.65-8.09
			c-1.62-1.91-3.97-2.94-7.06-2.94V461.88z M243.53,461.88L243.53,461.88L243.53,461.88L243.53,461.88z M243.53,457.91
			L243.53,457.91L243.53,457.91z M243.53,475.85c-1.47,0-2.65-0.74-3.53-1.91c-0.88-1.32-1.47-3.09-1.47-5.15s0.59-3.68,1.47-5
			c0.88-1.32,2.06-1.91,3.53-1.91v-3.97c-3.09,0-5.59,1.03-7.35,2.94c-1.76,1.91-2.65,4.56-2.65,8.09c0,3.38,0.88,6.03,2.65,7.94
			c1.76,1.91,4.26,2.94,7.35,2.94V475.85L243.53,475.85z M243.53,461.88L243.53,461.88L243.53,461.88L243.53,461.88z M243.53,457.91
			L243.53,457.91L243.53,457.91z"/>
		<path class="st2" d="M277.2,454.97c1.03,0.15,1.76,0.59,2.35,1.18c0.88,0.74,1.18,2.06,1.18,3.53c0,1.47-0.44,2.79-1.18,3.53
			c-0.59,0.59-1.47,0.88-2.35,1.18v4.12c2.65-0.15,4.71-1.03,6.18-2.35c1.76-1.47,2.5-3.68,2.5-6.47c0-2.94-0.74-5.15-2.35-6.62
			c-1.47-1.32-3.53-2.06-6.32-2.21V454.97z M273.67,454.82h2.35l0,0c0.44,0,0.74,0.15,1.18,0.15v-4.12c-0.29,0-0.74,0-1.03,0l0,0
			h-7.65l0,0v28.38h5.15V468.5h2.65l0,0c0.29,0,0.59,0,0.88,0v-4.12c-0.44,0-1.03,0-1.47,0l0,0h-2.06V454.82L273.67,454.82z"/>
		<path class="st2" d="M298.82,469.38h1.62v1.03l0,0c0,1.76-0.29,3.09-1.18,4.12c-0.74,0.74-1.62,1.32-2.5,1.47v3.38
			c0.44-0.15,0.88-0.29,1.32-0.59c1.03-0.59,1.91-1.62,2.65-2.94l0,0l0.15,3.38h4.26v-11.76l0,0c0-3.23-0.74-5.73-1.91-7.2
			c-1.32-1.62-3.38-2.35-6.18-2.35c-0.15,0-0.29,0-0.29,0v3.68c1.03,0.15,1.91,0.44,2.5,1.18c0.88,0.74,1.18,1.91,1.18,3.23l0,0
			v0.29h-2.35l0,0c-0.59,0-1.03,0-1.32,0.15v3.09C297.35,469.38,298.08,469.38,298.82,469.38L298.82,469.38L298.82,469.38z
			 M296.76,475.99c-0.29,0-0.59,0-0.74,0c-1.03,0-1.76-0.29-2.35-0.88c-0.44-0.44-0.74-1.18-0.74-2.21c0-1.18,0.44-2.06,1.47-2.65
			c0.59-0.44,1.32-0.59,2.35-0.74v-3.09c-2.65,0-4.71,0.59-6.18,1.62c-1.62,1.18-2.35,2.94-2.35,5.15c0,1.91,0.59,3.53,1.62,4.85
			c1.18,1.18,2.65,1.76,4.56,1.76c0.88,0,1.62-0.15,2.35-0.44V475.99L296.76,475.99z M296.76,457.91v3.68c-0.29,0-0.59,0-0.88,0
			c-0.88,0-1.76,0.15-2.65,0.44c-0.88,0.29-1.76,0.59-2.65,1.18l0,0l-0.15-3.82l0,0c1.18-0.44,2.21-0.74,3.23-1.03
			C294.7,458.06,295.73,458.06,296.76,457.91z"/>
		<path class="st2" d="M309.84,458.5v12.2l0,0c0,2.94,0.59,5.15,1.76,6.62s2.79,2.21,5,2.21c1.47,0,2.79-0.29,3.97-1.03
			c1.03-0.74,1.91-1.76,2.65-3.23l0,0v3.97h4.41V458.5h-4.85v9.26l0,0c0,2.35-0.29,4.26-1.03,5.44c-0.88,1.32-1.91,1.91-3.38,1.91
			c-1.18,0-2.21-0.44-2.79-1.32c-0.59-0.88-0.88-2.35-0.88-4.26l0,0V458.5H309.84L309.84,458.5z"/>
		<polygon class="st2" points="333.22,448.65 333.22,479.23 337.93,479.23 337.93,448.65 333.22,448.65 		"/>
		<path class="st2" d="M352.19,461.88c1.47,0,2.65,0.59,3.53,1.91c0.88,1.18,1.32,2.94,1.32,5c0,2.21-0.44,3.82-1.32,5.15
			c-0.88,1.18-2.06,1.91-3.53,1.91v3.97c3.09,0,5.44-1.03,7.2-2.94c1.76-1.91,2.65-4.56,2.65-7.94c0-3.53-0.88-6.18-2.65-8.09
			c-1.76-1.91-4.12-2.94-7.2-2.94V461.88z M352.19,461.88L352.19,461.88L352.19,461.88L352.19,461.88z M352.19,457.91L352.19,457.91
			L352.19,457.91z M352.19,475.85c-1.47,0-2.65-0.74-3.68-1.91c-0.88-1.32-1.32-3.09-1.32-5.15s0.44-3.68,1.32-5
			c1.03-1.32,2.21-1.91,3.68-1.91v-3.97c-3.23,0-5.59,1.03-7.35,2.94s-2.65,4.56-2.65,8.09c0,3.38,0.88,6.03,2.65,7.94
			s4.12,2.94,7.35,2.94V475.85L352.19,475.85z M352.19,461.88L352.19,461.88L352.19,461.88L352.19,461.88z M352.19,457.91
			L352.19,457.91L352.19,457.91z"/>
	</g>
</g>
</svg>
